<svg xmlns="http://www.w3.org/2000/svg" viewBox="0 0 100 100">
  <rect width="100" height="100" rx="20" fill="#6366f1"/>
  <rect x="15" y="15" width="30" height="30" rx="4" fill="none" stroke="white" stroke-width="5"/>
  <rect x="55" y="15" width="30" height="30" rx="4" fill="none" stroke="white" stroke-width="5"/>
  <rect x="15" y="55" width="30" height="30" rx="4" fill="none" stroke="white" stroke-width="5"/>
  <rect x="22" y="22" width="16" height="16" rx="2" fill="white"/>
  <rect x="62" y="22" width="16" height="16" rx="2" fill="white"/>
  <rect x="22" y="62" width="16" height="16" rx="2" fill="white"/>
  <rect x="55" y="55" width="8" height="8" fill="white"/>
  <rect x="67" y="55" width="8" height="8" fill="white"/>
  <rect x="55" y="67" width="8" height="8" fill="white"/>
  <rect x="67" y="67" width="8" height="8" fill="white"/>
  <rect x="79" y="55" width="6" height="6" fill="white"/>
  <rect x="55" y="79" width="6" height="6" fill="white"/>
  <rect x="79" y="79" width="6" height="6" fill="white"/>
</svg>
